<svg width="428" height="101" viewBox="0 0 428 101" fill="none" xmlns="http://www.w3.org/2000/svg">
<path d="M0.765625 99.5L18.4023 19.9297H20.4531L28.6562 58.2109L19.6328 99.5H0.765625ZM29.8867 87.8789L33.9883 69.0117H38.9102L24.418 3.79688H43.4219L65.9805 99.5H46.8398L44.1055 87.8789H29.8867Z" fill="black" fill-opacity="0.11"/>
<path d="M73.7734 99.5V42.7617C73.7734 38.2044 75.8242 33.7383 79.9258 29.3633C84.9388 24.168 91.1823 21.5247 98.6562 21.4336V39.6172C94.8281 40.0729 92.7318 41.8503 92.3672 44.9492V99.5H73.7734ZM104.945 39.6172V21.4336C113.786 21.4336 120.759 24.9427 125.863 31.9609C128.598 35.7891 129.965 39.3893 129.965 42.7617V99.5H111.371V44.9492C111.371 41.9414 109.685 40.2096 106.312 39.7539C105.857 39.6628 105.401 39.6172 104.945 39.6172Z" fill="black" fill-opacity="0.11"/>
<path d="M141.996 10.4961C141.996 6.75911 143.682 3.93359 147.055 2.01953C148.604 1.10807 150.245 0.652344 151.977 0.652344C155.805 0.652344 158.676 2.33854 160.59 5.71094C161.41 7.26042 161.82 8.85547 161.82 10.4961C161.82 14.3242 160.134 17.1953 156.762 19.1094C155.212 19.9297 153.617 20.3398 151.977 20.3398C148.057 20.3398 145.141 18.6081 143.227 15.1445C142.406 13.6862 141.996 12.1367 141.996 10.4961ZM142.953 99.5V25.6719H161.273V99.5H142.953Z" fill="black" fill-opacity="0.11"/>
<path d="M173.852 99.5V42.7617C173.852 38.2044 175.857 33.7839 179.867 29.5C184.971 24.2135 191.215 21.5247 198.598 21.4336V39.6172C194.952 40.1641 192.901 41.987 192.445 45.0859V99.5H173.852ZM204.887 39.6172V21.4336C211.085 21.5247 216.371 23.2109 220.746 26.4922C224.939 23.1198 230.18 21.4336 236.469 21.4336V39.6172C232.276 39.7083 230.134 41.5312 230.043 45.0859V99.5H211.449V45.0859C211.267 41.5312 209.079 39.7083 204.887 39.6172ZM242.621 39.6172V21.4336C251.462 21.4336 258.435 24.9427 263.539 31.9609C266.273 35.7891 267.641 39.3893 267.641 42.7617V99.5H249.047V45.0859C248.865 41.5312 246.723 39.7083 242.621 39.6172Z" fill="black" fill-opacity="0.11"/>
<path d="M276.254 81.4531C276.254 86.7396 278.76 91.2057 283.773 94.8516C288.057 97.9505 293.253 99.5 299.359 99.5V82.6836C294.711 82.6836 292.113 81.5898 291.566 79.4023C291.475 78.8555 291.43 78.3086 291.43 77.7617V75.8477C291.521 74.2982 292.113 73.25 293.207 72.7031C293.663 72.4297 295.349 71.9284 298.266 71.1992C305.375 69.194 310.16 67.4622 312.621 66.0039V77.2148C312.621 79.9492 311.345 81.681 308.793 82.4102C308.155 82.5924 307.471 82.6836 306.742 82.6836V99.5C312.393 99.4089 316.996 97.9505 320.551 95.125C323.923 98.0417 328.389 99.5 333.949 99.5V82.5469C331.488 82.3646 330.212 80.9062 330.121 78.1719V42.4883C330.121 37.4753 328.025 32.8268 323.832 28.543C319.184 23.8945 313.441 21.5703 306.605 21.5703V38.3867C310.525 38.6602 312.53 40.4375 312.621 43.7188V46.8633C312.621 49.4154 307.745 52.332 297.992 55.6133C289.607 58.5299 284.822 60.3073 283.637 60.9453C278.806 64.1354 276.345 68.6471 276.254 74.4805V81.4531ZM277.211 41.1211L293.07 47.1367C293.161 41.3945 295.303 38.4779 299.496 38.3867V21.5703C293.207 21.5703 287.693 23.849 282.953 28.4062C279.216 32.2344 277.302 36.4727 277.211 41.1211Z" fill="black" fill-opacity="0.11"/>
<path d="M343.109 99.5V1.60938H362.797V99.5H343.109Z" fill="black" fill-opacity="0.11"/>
<path d="M371.273 78.9922L388.227 75.8477C388.227 78.8555 389.776 80.9974 392.875 82.2734C393.969 82.638 394.971 82.8659 395.883 82.957V100.184C385.31 100.184 377.973 96.4466 373.871 88.9727C372.139 85.8737 371.273 82.5469 371.273 78.9922ZM372.094 42.8984C372.094 34.4219 376.059 28.1328 383.988 24.0312C387.908 21.9349 391.781 20.8867 395.609 20.8867V37.8398C391.143 37.931 388.91 39.6172 388.91 42.8984C388.91 46.362 393.103 49.4154 401.488 52.0586C404.587 53.0612 408.233 54.0182 412.426 54.9297C418.715 56.1146 423.181 59.6237 425.824 65.457C427.191 68.4648 427.875 71.7917 427.875 75.4375C427.875 84.9167 424.138 91.8893 416.664 96.3555C412.38 98.9076 407.504 100.184 402.035 100.184V82.957C405.225 82.957 407.595 81.9089 409.145 79.8125C409.874 78.8099 410.238 77.7161 410.238 76.5312C410.238 73.7057 406.775 71.2448 399.848 69.1484C398.754 68.875 397.068 68.4193 394.789 67.7812C389.958 66.5052 386.632 65.457 384.809 64.6367C378.155 61.2643 374.145 56.2969 372.777 49.7344C372.322 47.5469 372.094 45.2682 372.094 42.8984ZM401.762 37.8398L401.898 20.8867C410.102 20.8867 416.71 23.8945 421.723 29.9102C424.913 33.8294 426.508 37.9766 426.508 42.3516L409.691 45.2227C409.691 41.1211 407.504 38.7057 403.129 37.9766C402.582 37.8854 402.126 37.8398 401.762 37.8398Z" fill="black" fill-opacity="0.11"/>
</svg>
